<svg width="36" height="17" viewBox="0 0 36 17" fill="none" xmlns="http://www.w3.org/2000/svg">
<path d="M0.325195 1.03809C0.383789 1.00293 0.477539 0.953125 0.606445 0.888672C0.735352 0.824219 0.887695 0.762695 1.06348 0.704102C1.24512 0.639648 1.4502 0.586914 1.67871 0.545898C1.90723 0.499023 2.15039 0.475586 2.4082 0.475586C2.83008 0.475586 3.19043 0.522461 3.48926 0.616211C3.79395 0.709961 4.04297 0.841797 4.23633 1.01172C4.42969 1.17578 4.57031 1.375 4.6582 1.60938C4.75195 1.84375 4.79883 2.10449 4.79883 2.3916V8.57031C4.79883 8.97461 4.84277 9.32324 4.93066 9.61621C5.01855 9.90332 5.18555 10.123 5.43164 10.2754C5.4375 10.3223 5.44043 10.3809 5.44043 10.4512C5.44043 10.5156 5.44043 10.5654 5.44043 10.6006C5.44043 11.4502 5.22363 12.0889 4.79004 12.5166C4.3623 12.9443 3.76465 13.1582 2.99707 13.1582C2.65137 13.1582 2.31738 13.1084 1.99512 13.0088C1.67285 12.9092 1.38867 12.7422 1.14258 12.5078C0.896484 12.2734 0.697266 11.9658 0.544922 11.585C0.398438 11.2041 0.325195 10.7324 0.325195 10.1699V1.03809ZM10.4854 13.2725C9.7998 13.2725 9.15527 13.167 8.55176 12.9561C7.9541 12.7451 7.43262 12.4258 6.9873 11.998C6.54785 11.5703 6.19922 11.0371 5.94141 10.3984C5.68359 9.75977 5.55469 9.0127 5.55469 8.15723C5.55469 7.38379 5.6748 6.68652 5.91504 6.06543C6.15527 5.43848 6.49219 4.90527 6.92578 4.46582C7.35938 4.02637 7.87793 3.68945 8.48145 3.45508C9.08496 3.2207 9.75293 3.10352 10.4854 3.10352C11.2178 3.10352 11.8857 3.22949 12.4893 3.48145C13.0928 3.7334 13.6084 4.08789 14.0361 4.54492C14.4697 4.99609 14.8037 5.53809 15.0381 6.1709C15.2783 6.79785 15.3984 7.48633 15.3984 8.23633C15.3984 9.00977 15.2871 9.70703 15.0645 10.3281C14.8418 10.9492 14.5195 11.4795 14.0977 11.9189C13.6758 12.3525 13.1602 12.6865 12.5508 12.9209C11.9414 13.1553 11.2529 13.2725 10.4854 13.2725ZM10.2832 9.64258C10.3242 9.68359 10.3857 9.7041 10.4678 9.7041C10.5791 9.7041 10.6523 9.67188 10.6875 9.60742C10.7285 9.53711 10.749 9.42578 10.749 9.27344V8.0166C10.749 7.75293 10.7432 7.53027 10.7314 7.34863C10.7256 7.16699 10.708 7.01758 10.6787 6.90039C10.6494 6.7832 10.6113 6.70703 10.5645 6.67188C10.5234 6.63672 10.4736 6.61914 10.415 6.61914C10.3623 6.61914 10.3184 6.62793 10.2832 6.64551C10.2539 6.66309 10.2275 6.68359 10.2041 6.70703C10.21 6.80078 10.2188 6.88867 10.2305 6.9707C10.2422 7.05273 10.251 7.14648 10.2568 7.25195C10.2627 7.35156 10.2686 7.47168 10.2744 7.6123C10.2803 7.74707 10.2832 7.91113 10.2832 8.10449V9.64258ZM20.1885 10.1787C20.1826 10.1904 20.1768 10.2109 20.1709 10.2402C20.165 10.2695 20.1621 10.2988 20.1621 10.3281C20.1621 10.4512 20.25 10.5361 20.4258 10.583C20.6074 10.6299 20.8477 10.6533 21.1465 10.6533C21.5801 10.6533 22.0049 10.6182 22.4209 10.5479C22.8369 10.4717 23.1914 10.3721 23.4844 10.249C23.8359 10.3428 24.1318 10.4863 24.3721 10.6797C24.6123 10.8672 24.8086 11.0811 24.9609 11.3213C25.1133 11.5615 25.2217 11.8193 25.2861 12.0947C25.3564 12.3701 25.3916 12.6426 25.3916 12.9121C25.3916 13.4688 25.2686 13.9609 25.0225 14.3887C24.7764 14.8164 24.4307 15.1738 23.9854 15.4609C23.5459 15.7539 23.0186 15.9736 22.4033 16.1201C21.7881 16.2725 21.1143 16.3486 20.3818 16.3486C19.6494 16.3486 19.0078 16.2783 18.457 16.1377C17.9121 16.0029 17.4551 15.8154 17.0859 15.5752C16.7227 15.3408 16.4502 15.0654 16.2686 14.749C16.0869 14.4385 15.9961 14.1045 15.9961 13.7471C15.9961 13.5889 16.0137 13.4365 16.0488 13.29C16.0898 13.1494 16.1396 13.0176 16.1982 12.8945C16.2627 12.7715 16.333 12.666 16.4092 12.5781C16.4912 12.4844 16.5762 12.4141 16.6641 12.3672C16.9395 12.6016 17.3584 12.7979 17.9209 12.9561C18.4834 13.1143 19.166 13.1934 19.9688 13.1934C20.4141 13.1934 20.7217 13.1699 20.8916 13.123C21.0615 13.082 21.1465 13 21.1465 12.877C21.1465 12.8359 21.1406 12.8037 21.1289 12.7803C21.1172 12.751 21.1055 12.7246 21.0938 12.7012C20.9531 12.7305 20.7773 12.7539 20.5664 12.7715C20.3555 12.7891 20.165 12.7979 19.9951 12.7979C19.4971 12.7979 19.0166 12.7627 18.5537 12.6924C18.0908 12.6162 17.6807 12.4902 17.3232 12.3145C16.9717 12.1387 16.6875 11.9102 16.4707 11.6289C16.2598 11.3418 16.1543 10.9873 16.1543 10.5654C16.1543 10.2783 16.2129 10.0029 16.3301 9.73926C16.4473 9.46973 16.6318 9.26758 16.8838 9.13281C16.749 9.05078 16.6113 8.94238 16.4707 8.80762C16.3359 8.66699 16.2129 8.49707 16.1016 8.29785C15.9902 8.09863 15.8994 7.87012 15.8291 7.6123C15.7588 7.35449 15.7236 7.06152 15.7236 6.7334C15.7236 6.15918 15.8379 5.64648 16.0664 5.19531C16.2949 4.74414 16.6113 4.36328 17.0156 4.05273C17.4199 3.74219 17.9004 3.50488 18.457 3.34082C19.0137 3.17676 19.6201 3.09473 20.2764 3.09473C20.6514 3.09473 21 3.12988 21.3223 3.2002C21.6445 3.26465 21.9229 3.33789 22.1572 3.41992V2.80469C22.292 2.75195 22.4736 2.70508 22.7021 2.66406C22.9365 2.62305 23.1914 2.60254 23.4668 2.60254C23.7422 2.60254 23.9971 2.62305 24.2314 2.66406C24.4658 2.70508 24.668 2.78125 24.8379 2.89258C25.0078 3.00391 25.1396 3.15918 25.2334 3.3584C25.333 3.55762 25.3828 3.81543 25.3828 4.13184C25.3828 4.27832 25.374 4.42188 25.3564 4.5625C25.3389 4.69727 25.3066 4.83203 25.2598 4.9668C25.1953 5.16016 25.1045 5.35352 24.9873 5.54688C25.0635 5.73438 25.1191 5.93945 25.1543 6.16211C25.1953 6.38477 25.2158 6.66016 25.2158 6.98828C25.2158 7.52148 25.1162 7.99316 24.917 8.40332C24.7178 8.80762 24.4395 9.14746 24.082 9.42285C23.7246 9.69824 23.2969 9.90625 22.7988 10.0469C22.3008 10.1875 21.75 10.2578 21.1465 10.2578C20.959 10.2578 20.7744 10.249 20.5928 10.2314C20.4111 10.2139 20.2764 10.1963 20.1885 10.1787ZM20.8213 6.69824C20.8213 6.59863 20.8008 6.52246 20.7598 6.46973C20.7246 6.41113 20.666 6.38184 20.584 6.38184C20.5254 6.38184 20.4727 6.40234 20.4258 6.44336C20.3848 6.47852 20.3643 6.5459 20.3643 6.64551V7.55078C20.417 7.5918 20.4756 7.6123 20.54 7.6123C20.6689 7.6123 20.748 7.57422 20.7773 7.49805C20.8066 7.41602 20.8213 7.29004 20.8213 7.12012V6.69824ZM30.4717 13.2725C29.7861 13.2725 29.1416 13.167 28.5381 12.9561C27.9404 12.7451 27.4189 12.4258 26.9736 11.998C26.5342 11.5703 26.1855 11.0371 25.9277 10.3984C25.6699 9.75977 25.541 9.0127 25.541 8.15723C25.541 7.38379 25.6611 6.68652 25.9014 6.06543C26.1416 5.43848 26.4785 4.90527 26.9121 4.46582C27.3457 4.02637 27.8643 3.68945 28.4678 3.45508C29.0713 3.2207 29.7393 3.10352 30.4717 3.10352C31.2041 3.10352 31.8721 3.22949 32.4756 3.48145C33.0791 3.7334 33.5947 4.08789 34.0225 4.54492C34.4561 4.99609 34.79 5.53809 35.0244 6.1709C35.2646 6.79785 35.3848 7.48633 35.3848 8.23633C35.3848 9.00977 35.2734 9.70703 35.0508 10.3281C34.8281 10.9492 34.5059 11.4795 34.084 11.9189C33.6621 12.3525 33.1465 12.6865 32.5371 12.9209C31.9277 13.1553 31.2393 13.2725 30.4717 13.2725ZM30.2695 9.64258C30.3105 9.68359 30.3721 9.7041 30.4541 9.7041C30.5654 9.7041 30.6387 9.67188 30.6738 9.60742C30.7148 9.53711 30.7354 9.42578 30.7354 9.27344V8.0166C30.7354 7.75293 30.7295 7.53027 30.7178 7.34863C30.7119 7.16699 30.6943 7.01758 30.665 6.90039C30.6357 6.7832 30.5977 6.70703 30.5508 6.67188C30.5098 6.63672 30.46 6.61914 30.4014 6.61914C30.3486 6.61914 30.3047 6.62793 30.2695 6.64551C30.2402 6.66309 30.2139 6.68359 30.1904 6.70703C30.1963 6.80078 30.2051 6.88867 30.2168 6.9707C30.2285 7.05273 30.2373 7.14648 30.2432 7.25195C30.249 7.35156 30.2549 7.47168 30.2607 7.6123C30.2666 7.74707 30.2695 7.91113 30.2695 8.10449V9.64258Z" fill="#1D341B"/>
</svg>
