<svg width="40" height="40" viewBox="0 0 51 51" fill="none" xmlns="http://www.w3.org/2000/svg">
<path d="M41.9167 0.46875H8.58333C3.98125 0.46875 0.25 4.2 0.25 8.80208V42.1354C0.25 46.7375 3.98125 50.4687 8.58333 50.4687H26.2917V32.7604H20.0417V25.4687H26.2917V20.2604C26.2917 12.9687 30.4583 8.80208 36.7083 8.80208C39.9719 8.80208 41.9167 9.84375 41.9167 9.84375V16.0937H37.75C34.7708 16.0937 33.5833 18.274 33.5833 20.2604V25.4687H40.875L39.8333 32.7604H33.5833V50.4687H41.9167C46.5187 50.4687 50.25 46.7375 50.25 42.1354V8.80208C50.25 4.2 46.5187 0.46875 41.9167 0.46875Z" fill="black"/>
</svg>
